<svg width="220" height="19" viewBox="0 0 220 19" fill="none" xmlns="http://www.w3.org/2000/svg">
<path fill-rule="evenodd" clip-rule="evenodd" d="M34.4117 5.12225C35.9198 5.12225 37.1351 5.50842 38.0576 6.28076C38.9801 7.0531 39.4734 8.10592 39.5376 9.43923H36.7942C36.746 8.83762 36.5054 8.35795 36.0722 8.00024C35.6391 7.64252 35.0535 7.46366 34.3155 7.46366C33.5935 7.46366 33.04 7.60187 32.655 7.87829C32.2699 8.1547 32.0774 8.52055 32.0774 8.97582C32.0774 9.33354 32.2058 9.63435 32.4625 9.87824C32.7192 10.1221 33.032 10.3132 33.401 10.4514C33.77 10.5896 34.3155 10.7644 35.0374 10.9758C36 11.2359 36.7902 11.5002 37.4078 11.7684C38.0255 12.0367 38.559 12.431 39.0082 12.9513C39.4574 13.4717 39.69 14.1627 39.7061 15.0245C39.7061 15.7887 39.4975 16.4716 39.0804 17.0732C38.6632 17.6748 38.0736 18.1464 37.3116 18.4878C36.5495 18.8293 35.6551 19 34.6283 19C33.5855 19 32.651 18.8069 31.8247 18.4268C30.9985 18.0447 30.3447 17.5244 29.8634 16.8659C29.3821 16.2074 29.1254 15.4716 29.0933 14.6586H31.933C31.9812 15.2277 32.2499 15.7033 32.7392 16.0854C33.2285 16.4675 33.8422 16.6586 34.5802 16.6586C35.3503 16.6586 35.9479 16.5082 36.373 16.2074C36.7982 15.9066 37.0108 15.5204 37.0108 15.0489C37.0108 14.5448 36.7741 14.1708 36.3008 13.9269C35.8276 13.683 35.0775 13.4148 34.0508 13.1221C33.0561 12.8457 32.2459 12.5774 31.6202 12.3172C30.9945 12.0571 30.453 11.6587 29.9958 11.1221C29.5385 10.5855 29.3099 9.87824 29.3099 9.00021C29.3099 8.28478 29.5185 7.63032 29.9356 7.03684C30.3527 6.44336 30.9504 5.97589 31.7285 5.63443C32.5066 5.29298 33.401 5.12225 34.4117 5.12225ZM105.018 5.12225C106.27 5.12225 107.385 5.39866 108.363 5.9515C109.342 6.50433 110.104 7.28074 110.649 8.28072C111.195 9.2807 111.468 10.4311 111.468 11.7319C111.468 12.2359 111.436 12.6912 111.371 13.0977H101.24C101.32 14.1708 101.711 15.0326 102.419 15.683C103.125 16.3334 103.991 16.6586 105.018 16.6586C106.494 16.6586 107.537 16.0326 108.147 14.7806H111.107C110.706 16.0163 109.98 17.0285 108.929 17.8171C107.878 18.6057 106.574 19 105.018 19C103.751 19 102.616 18.7114 101.613 18.1342C100.61 17.5569 99.8242 16.744 99.2546 15.6952C98.6851 14.6464 98.4003 13.431 98.4003 12.0489C98.4003 10.6668 98.6771 9.45142 99.2306 8.40267C99.7841 7.35391 100.562 6.54498 101.565 5.97589C102.568 5.4068 103.719 5.12225 105.018 5.12225ZM76.6212 5.12184C77.8886 5.12184 79.0357 5.40639 80.0625 5.97548C81.0893 6.54458 81.8995 7.35757 82.4931 8.41445C83.0867 9.47134 83.3835 10.6827 83.3835 12.0485C83.3835 13.4143 83.0786 14.6257 82.469 15.6826C81.8593 16.7395 81.0291 17.5565 79.9782 18.1338C78.9274 18.711 77.7683 18.9996 76.5008 18.9996C75.2495 18.9996 74.1184 18.711 73.1077 18.1338C72.0969 17.5565 71.3028 16.7435 70.7252 15.6948C70.1476 14.646 69.8589 13.4306 69.8589 12.0485C69.8589 10.6827 70.1557 9.47134 70.7493 8.41445C71.3429 7.35757 72.1531 6.54458 73.1799 5.97548C74.2066 5.40639 75.3537 5.12184 76.6212 5.12184ZM214.513 5.04867C216.101 5.04867 217.369 5.4511 218.315 6.25596C219.262 7.06082 219.783 8.14617 219.88 9.51199H216.655C216.607 8.97542 216.384 8.5486 215.993 8.23153C215.6 7.91446 215.075 7.75593 214.417 7.75593C213.805 7.75593 213.338 7.86975 213.009 8.09739C212.68 8.32502 212.516 8.64209 212.516 9.04859C212.516 9.50386 212.74 9.84938 213.19 10.0851C213.637 10.3209 214.337 10.5608 215.283 10.8046C216.246 11.0485 217.04 11.3006 217.666 11.5607C218.291 11.8209 218.833 12.2233 219.29 12.768C219.747 13.3127 219.982 14.0322 220 14.9265C220 15.707 219.787 16.4062 219.362 17.024C218.937 17.6419 218.327 18.1256 217.533 18.4752C216.739 18.8248 215.813 18.9996 214.754 18.9996C213.663 18.9996 212.684 18.8004 211.818 18.402C210.95 18.0037 210.266 17.463 209.76 16.7801C209.255 16.0972 208.978 15.3411 208.93 14.5119H212.323C212.385 15.0322 212.64 15.4631 213.081 15.8045C213.522 16.146 214.072 16.3167 214.73 16.3167C215.369 16.3167 215.871 16.1866 216.234 15.9265C216.595 15.6663 216.775 15.333 216.775 14.9265C216.775 14.4875 216.553 14.1582 216.113 13.9387C215.672 13.7192 214.97 13.4794 214.008 13.2192C213.013 12.9753 212.197 12.7233 211.565 12.4631C210.931 12.203 210.386 11.8046 209.929 11.2681C209.471 10.7315 209.243 10.0079 209.243 9.09737C209.243 8.34941 209.453 7.6665 209.881 7.04863C210.306 6.43076 210.915 5.94296 211.708 5.58525C212.504 5.22753 213.438 5.04867 214.513 5.04867ZM146.24 5.04867C147.235 5.04867 148.107 5.25192 148.853 5.65842C149.599 6.06491 150.197 6.5771 150.644 7.19497V5.26818H154.039V18.7801H150.644V16.8045C150.211 17.4387 149.615 17.963 148.853 18.3777C148.089 18.7923 147.211 18.9996 146.216 18.9996C145.095 18.9996 144.07 18.7069 143.148 18.1216C142.225 17.5362 141.497 16.711 140.958 15.646C140.422 14.581 140.154 13.3574 140.154 11.9754C140.154 10.6095 140.422 9.39817 140.958 8.34128C141.497 7.2844 142.225 6.47141 143.148 5.90231C144.07 5.33322 145.103 5.04867 146.24 5.04867ZM58.1397 0.731692V7.34131C58.605 6.69091 59.2427 6.1584 60.0529 5.74378C60.8631 5.32915 61.7656 5.12184 62.7603 5.12184C63.9314 5.12184 64.9903 5.40639 65.9369 5.97548C66.8834 6.54458 67.6294 7.3535 68.1749 8.40226C68.7204 9.45102 68.9931 10.6502 68.9931 11.9997C68.9931 13.3493 68.7204 14.5566 68.1749 15.6216C67.6294 16.6866 66.8794 17.5159 65.9248 18.1094C64.9702 18.7029 63.9154 18.9996 62.7603 18.9996C61.7335 18.9996 60.823 18.7963 60.0289 18.3899C59.2347 17.9834 58.605 17.463 58.1397 16.8289V18.7801H55.3963V0.731692H58.1397ZM193.313 5.04827C194.58 5.04827 195.713 5.32468 196.716 5.87752C197.719 6.43035 198.499 7.21489 199.051 8.23112C199.606 9.24736 199.881 10.414 199.881 11.731C199.881 12.2188 199.851 12.6579 199.785 13.0481H190.038C190.118 14.0237 190.455 14.7879 191.049 15.3407C191.642 15.8936 192.372 16.17 193.241 16.17C194.492 16.17 195.381 15.6253 195.912 14.5359H199.544C199.161 15.8367 198.423 16.9057 197.332 17.7431C196.239 18.5825 194.901 18.9992 193.313 18.9992C192.027 18.9992 190.876 18.7106 189.858 18.1334C188.839 17.5561 188.045 16.7391 187.477 15.6822C186.908 14.6253 186.623 13.4058 186.623 12.0237C186.623 10.6274 186.904 9.3998 187.465 8.34088C188.025 7.28399 188.813 6.47303 189.824 5.90191C190.834 5.33485 191.997 5.04827 193.313 5.04827ZM2.90988 1.82943L6.37726 15.634L10.1294 1.82943H13.2118L16.6992 15.5608L20.1906 1.82943H23.1246L18.1692 18.7803H15.0648L11.5513 5.9513L7.81916 18.7803L4.73882 18.8047L0 1.82943H2.90988ZM208.351 5.07347V8.65876H207.46C206.403 8.65876 205.603 8.91078 205.068 9.41484C204.528 9.91889 204.26 10.7969 204.26 12.0489V18.7805H200.892V5.26859H204.26V7.3661C204.693 6.65067 205.258 6.08971 205.956 5.68321C206.656 5.27672 207.452 5.07347 208.351 5.07347ZM91.349 5.12205C92.3918 5.12205 93.3264 5.34155 94.1526 5.78057C94.9789 6.21958 95.6246 6.86998 96.0899 7.73175C96.5551 8.59352 96.7877 9.63414 96.7877 10.8536V18.7803H94.0684V11.2683C94.0684 10.065 93.7716 9.14228 93.178 8.50002C92.5844 7.85776 91.7742 7.53663 90.7474 7.53663C89.7206 7.53663 88.9064 7.85776 88.3048 8.50002C87.7032 9.14228 87.4023 10.065 87.4023 11.2683V18.7803H84.6589V5.34155H87.4023V6.8781C87.8516 6.32527 88.4251 5.89439 89.123 5.58545C89.8209 5.27651 90.5629 5.12205 91.349 5.12205ZM162.868 5.07347V8.65876H161.978C160.921 8.65876 160.121 8.91078 159.585 9.41484C159.046 9.91889 158.777 10.7969 158.777 12.0489V18.7805H155.41V5.26859H158.777V7.3661C159.21 6.65067 159.776 6.08971 160.474 5.68321C161.174 5.27672 161.97 5.07347 162.868 5.07347ZM44.4475 0.731895V6.90249C44.9128 6.3334 45.5023 5.89439 46.2163 5.58545C46.9302 5.27651 47.7123 5.12205 48.5626 5.12205C49.5734 5.12205 50.4758 5.34155 51.27 5.78057C52.0641 6.21958 52.6898 6.86998 53.147 7.73175C53.6043 8.59352 53.8329 9.63414 53.8329 10.8536V18.7803H51.1135V11.2683C51.1135 10.065 50.8167 9.14228 50.2231 8.50002C49.6295 7.85776 48.8193 7.53663 47.7925 7.53663C46.7658 7.53663 45.9516 7.85776 45.3499 8.50002C44.7483 9.14228 44.4475 10.065 44.4475 11.2683V18.7803H41.7041V0.731895H44.4475ZM27.1689 5.34135V18.7801H24.4255V5.34135H27.1689ZM134.015 1.75586C135.315 1.75586 136.422 1.98349 137.336 2.43877C138.251 2.89404 138.937 3.52005 139.394 4.31678C139.851 5.11351 140.078 6.01593 140.078 7.02404C140.078 7.93459 139.867 8.78823 139.442 9.58496C139.017 10.3817 138.351 11.024 137.445 11.5117C136.538 11.9995 135.395 12.2434 134.015 12.2434H131.2V18.7799H127.831V1.75586H134.015ZM168.574 1.92679V5.26818H171.558V8.073H168.574V14.6094C168.574 15.0647 168.682 15.394 168.899 15.5972C169.115 15.8005 169.48 15.9021 169.994 15.9021H171.558V18.7801H169.44C166.6 18.7801 165.181 17.3817 165.181 14.5851V8.073H163.592V5.26818H165.181V1.92679H168.574ZM180.412 5.07286C182.001 5.07286 183.286 5.58098 184.263 6.59722C185.241 7.61345 185.731 9.03212 185.731 10.8532V18.7799H182.364V11.3166C182.364 10.2435 182.097 9.41829 181.567 8.84107C181.04 8.26385 180.316 7.97524 179.402 7.97524C178.471 7.97524 177.737 8.26385 177.202 8.84107C176.662 9.41829 176.393 10.2435 176.393 11.3166V18.7799H173.024V5.26798H176.393V6.95087C176.843 6.36551 177.416 5.90617 178.116 5.57285C178.812 5.23952 179.578 5.07286 180.412 5.07286ZM62.1586 7.53642C61.4688 7.53642 60.815 7.71528 60.1973 8.073C59.5796 8.43071 59.0823 8.95103 58.7053 9.63394C58.3283 10.3169 58.1397 11.1217 58.1397 12.0485C58.1397 12.9753 58.3283 13.7843 58.7053 14.4753C59.0823 15.1663 59.5796 15.6907 60.1973 16.0484C60.815 16.4062 61.4688 16.585 62.1586 16.585C62.8645 16.585 63.5263 16.4021 64.144 16.0362C64.7617 15.6704 65.259 15.1379 65.636 14.4387C66.0131 13.7395 66.2016 12.9266 66.2016 11.9997C66.2016 11.0729 66.0131 10.2721 65.636 9.59736C65.259 8.92257 64.7617 8.41039 64.144 8.0608C63.5263 7.71122 62.8645 7.53642 62.1586 7.53642ZM76.573 7.53642C75.8671 7.53642 75.2134 7.70715 74.6117 8.04861C74.0101 8.39006 73.5328 8.89818 73.1799 9.57297C72.8269 10.2477 72.6504 11.0729 72.6504 12.0485C72.6504 13.4956 73.0154 14.6135 73.7454 15.4021C74.4754 16.1907 75.3938 16.585 76.5008 16.585C77.2067 16.585 77.8685 16.4143 78.4862 16.0728C79.1039 15.7314 79.6052 15.2192 79.9903 14.5363C80.3753 13.8534 80.5678 13.0241 80.5678 12.0485C80.5678 11.0729 80.3833 10.2477 80.0144 9.57297C79.6453 8.89818 79.156 8.39006 78.5464 8.04861C77.9367 7.70715 77.2789 7.53642 76.573 7.53642ZM121.093 3.87797V8.60957H125.639V11.5851H121.093V16.3167H117.916V11.5851H113.368V8.60957H117.916V3.87797H121.093ZM147.108 8.04861C146.481 8.04861 145.903 8.20308 145.374 8.51201C144.846 8.82095 144.415 9.27216 144.088 9.86564C143.759 10.4591 143.595 11.1624 143.595 11.9754C143.595 12.7883 143.759 13.4997 144.088 14.1095C144.415 14.7192 144.85 15.1867 145.386 15.5119C145.925 15.8371 146.497 15.9997 147.108 15.9997C147.732 15.9997 148.318 15.8411 148.865 15.5241C149.409 15.207 149.842 14.7517 150.163 14.1582C150.483 13.5647 150.644 12.8534 150.644 12.0241C150.644 11.1949 150.483 10.4835 150.163 9.89003C149.842 9.29655 149.409 8.84127 148.865 8.52421C148.318 8.20714 147.732 8.04861 147.108 8.04861ZM104.898 7.46366C103.951 7.46366 103.141 7.76853 102.467 8.37828C101.793 8.98802 101.392 9.8132 101.264 10.8538H108.604C108.588 9.82946 108.227 9.00834 107.521 8.39047C106.813 7.7726 105.941 7.46366 104.898 7.46366ZM193.215 7.85308C192.38 7.85308 191.679 8.10918 191.109 8.62136C190.539 9.13354 190.191 9.84491 190.064 10.7555H196.391C196.375 9.87743 196.062 9.17419 195.453 8.64575C194.845 8.11731 194.097 7.85308 193.215 7.85308ZM133.871 4.53628H131.2V9.4874H133.871C134.801 9.4874 135.489 9.27196 135.941 8.84107C136.39 8.41019 136.614 7.80451 136.614 7.02404C136.614 5.36554 135.7 4.53628 133.871 4.53628ZM25.8213 0C26.3026 0 26.7117 0.170728 27.0486 0.512184C27.3855 0.85364 27.554 1.2764 27.554 1.78045C27.554 2.2845 27.3855 2.70726 27.0486 3.04872C26.7117 3.39017 26.3026 3.5609 25.8213 3.5609C25.3239 3.5609 24.9068 3.39017 24.5699 3.04872C24.233 2.70726 24.0645 2.2845 24.0645 1.78045C24.0645 1.2764 24.233 0.85364 24.5699 0.512184C24.9068 0.170728 25.3239 0 25.8213 0Z" fill="#1B1A1A"/>
</svg>
