<svg width="180" height="11" viewBox="0 0 180 11" fill="none" xmlns="http://www.w3.org/2000/svg">
<path d="M13.342 0.242L10.514 10H9.086L6.818 2.146L4.466 10L3.052 10.014L0.322 0.242H1.68L3.808 8.516L6.16 0.242H7.588L9.828 8.488L11.97 0.242H13.342ZM18.0102 0.242V10H16.7362V0.242H18.0102ZM25.2755 10.098C24.6315 10.098 24.0528 9.986 23.5395 9.762C23.0355 9.52867 22.6388 9.21133 22.3495 8.81C22.0602 8.39933 21.9108 7.928 21.9015 7.396H23.2595C23.3062 7.85333 23.4928 8.24067 23.8195 8.558C24.1555 8.866 24.6408 9.02 25.2755 9.02C25.8822 9.02 26.3582 8.87067 26.7035 8.572C27.0582 8.264 27.2355 7.872 27.2355 7.396C27.2355 7.02267 27.1328 6.71933 26.9275 6.486C26.7222 6.25267 26.4655 6.07533 26.1575 5.954C25.8495 5.83267 25.4342 5.702 24.9115 5.562C24.2675 5.394 23.7495 5.226 23.3575 5.058C22.9748 4.89 22.6435 4.62867 22.3635 4.274C22.0928 3.91 21.9575 3.42467 21.9575 2.818C21.9575 2.286 22.0928 1.81467 22.3635 1.404C22.6342 0.993333 23.0122 0.675999 23.4975 0.451999C23.9922 0.228 24.5568 0.116 25.1915 0.116C26.1062 0.116 26.8528 0.344666 27.4315 0.802C28.0195 1.25933 28.3508 1.866 28.4255 2.622H27.0255C26.9788 2.24867 26.7828 1.922 26.4375 1.642C26.0922 1.35267 25.6348 1.208 25.0655 1.208C24.5335 1.208 24.0995 1.348 23.7635 1.628C23.4275 1.89867 23.2595 2.28133 23.2595 2.776C23.2595 3.13067 23.3575 3.42 23.5535 3.644C23.7588 3.868 24.0062 4.04067 24.2955 4.162C24.5942 4.274 25.0095 4.40467 25.5415 4.554C26.1855 4.73133 26.7035 4.90867 27.0955 5.086C27.4875 5.254 27.8235 5.52 28.1035 5.884C28.3835 6.23867 28.5235 6.724 28.5235 7.34C28.5235 7.816 28.3975 8.264 28.1455 8.684C27.8935 9.104 27.5202 9.44467 27.0255 9.706C26.5308 9.96733 25.9475 10.098 25.2755 10.098ZM39.9163 0.242V10H38.6423V5.576H33.6723V10H32.3983V0.242H33.6723V4.526H38.6423V0.242H39.9163ZM48.9777 4.974C49.3323 5.03 49.6543 5.17467 49.9437 5.408C50.2423 5.64133 50.4757 5.93067 50.6437 6.276C50.821 6.62133 50.9097 6.99 50.9097 7.382C50.9097 7.87667 50.7837 8.32467 50.5317 8.726C50.2797 9.118 49.911 9.43067 49.4257 9.664C48.9497 9.888 48.385 10 47.7317 10H44.0917V0.242H47.5917C48.2543 0.242 48.819 0.354 49.2857 0.577999C49.7523 0.792666 50.1023 1.08667 50.3357 1.46C50.569 1.83333 50.6857 2.25333 50.6857 2.72C50.6857 3.29867 50.527 3.77933 50.2097 4.162C49.9017 4.53533 49.491 4.806 48.9777 4.974ZM45.3657 4.456H47.5077C48.105 4.456 48.567 4.316 48.8937 4.036C49.2203 3.756 49.3837 3.36867 49.3837 2.874C49.3837 2.37933 49.2203 1.992 48.8937 1.712C48.567 1.432 48.0957 1.292 47.4797 1.292H45.3657V4.456ZM47.6197 8.95C48.2543 8.95 48.749 8.80067 49.1037 8.502C49.4583 8.20333 49.6357 7.788 49.6357 7.256C49.6357 6.71467 49.449 6.29 49.0757 5.982C48.7023 5.66467 48.203 5.506 47.5777 5.506H45.3657V8.95H47.6197ZM59.1016 10.098C58.1963 10.098 57.3703 9.888 56.6236 9.468C55.8769 9.03867 55.2843 8.446 54.8456 7.69C54.4163 6.92467 54.2016 6.066 54.2016 5.114C54.2016 4.162 54.4163 3.308 54.8456 2.552C55.2843 1.78667 55.8769 1.194 56.6236 0.773999C57.3703 0.344666 58.1963 0.129999 59.1016 0.129999C60.0163 0.129999 60.8469 0.344666 61.5936 0.773999C62.3403 1.194 62.9283 1.782 63.3576 2.538C63.7869 3.294 64.0016 4.15267 64.0016 5.114C64.0016 6.07533 63.7869 6.934 63.3576 7.69C62.9283 8.446 62.3403 9.03867 61.5936 9.468C60.8469 9.888 60.0163 10.098 59.1016 10.098ZM59.1016 8.992C59.7829 8.992 60.3943 8.83333 60.9356 8.516C61.4863 8.19867 61.9156 7.746 62.2236 7.158C62.5409 6.57 62.6996 5.88867 62.6996 5.114C62.6996 4.33 62.5409 3.64867 62.2236 3.07C61.9156 2.482 61.4909 2.02933 60.9496 1.712C60.4083 1.39467 59.7923 1.236 59.1016 1.236C58.4109 1.236 57.7949 1.39467 57.2536 1.712C56.7123 2.02933 56.2829 2.482 55.9656 3.07C55.6576 3.64867 55.5036 4.33 55.5036 5.114C55.5036 5.88867 55.6576 6.57 55.9656 7.158C56.2829 7.746 56.7123 8.19867 57.2536 8.516C57.8043 8.83333 58.4203 8.992 59.1016 8.992ZM75.3555 10H74.0815L68.9575 2.23V10H67.6835V0.228H68.9575L74.0815 7.984V0.228H75.3555V10ZM80.8012 1.278V4.54H84.3572V5.59H80.8012V8.95H84.7772V10H79.5272V0.228H84.7772V1.278H80.8012ZM95.985 5.422H93.003V8.446H91.813V5.422H88.845V4.344H91.813V1.306H93.003V4.344H95.985V5.422ZM106.786 3.098C106.786 3.91 106.506 4.58667 105.946 5.128C105.395 5.66 104.55 5.926 103.412 5.926H101.536V10H100.262V0.242H103.412C104.513 0.242 105.348 0.508 105.918 1.04C106.496 1.572 106.786 2.258 106.786 3.098ZM103.412 4.876C104.121 4.876 104.644 4.722 104.98 4.414C105.316 4.106 105.484 3.66733 105.484 3.098C105.484 1.894 104.793 1.292 103.412 1.292H101.536V4.876H103.412ZM116.137 7.83H111.881L111.097 10H109.753L113.281 0.298H114.751L118.265 10H116.921L116.137 7.83ZM115.773 6.794L114.009 1.866L112.245 6.794H115.773ZM126.941 10L124.617 6.01H123.077V10H121.803V0.242H124.953C125.69 0.242 126.311 0.368 126.815 0.62C127.328 0.872 127.711 1.21267 127.963 1.642C128.215 2.07133 128.341 2.56133 128.341 3.112C128.341 3.784 128.145 4.37667 127.753 4.89C127.37 5.40333 126.791 5.744 126.017 5.912L128.467 10H126.941ZM123.077 4.988H124.953C125.643 4.988 126.161 4.82 126.507 4.484C126.852 4.13867 127.025 3.68133 127.025 3.112C127.025 2.53333 126.852 2.08533 126.507 1.768C126.171 1.45067 125.653 1.292 124.953 1.292H123.077V4.988ZM138.326 0.242V1.278H135.666V10H134.392V1.278H131.718V0.242H138.326ZM149.566 10H148.292L143.168 2.23V10H141.894V0.228H143.168L148.292 7.984V0.228H149.566V10ZM155.012 1.278V4.54H158.568V5.59H155.012V8.95H158.988V10H153.738V0.228H158.988V1.278H155.012ZM168.054 10L165.73 6.01H164.19V10H162.916V0.242H166.066C166.803 0.242 167.424 0.368 167.928 0.62C168.441 0.872 168.824 1.21267 169.076 1.642C169.328 2.07133 169.454 2.56133 169.454 3.112C169.454 3.784 169.258 4.37667 168.866 4.89C168.483 5.40333 167.905 5.744 167.13 5.912L169.58 10H168.054ZM164.19 4.988H166.066C166.757 4.988 167.275 4.82 167.62 4.484C167.965 4.13867 168.138 3.68133 168.138 3.112C168.138 2.53333 167.965 2.08533 167.62 1.768C167.284 1.45067 166.766 1.292 166.066 1.292H164.19V4.988ZM176.527 10.098C175.883 10.098 175.305 9.986 174.791 9.762C174.287 9.52867 173.891 9.21133 173.601 8.81C173.312 8.39933 173.163 7.928 173.153 7.396H174.511C174.558 7.85333 174.745 8.24067 175.071 8.558C175.407 8.866 175.893 9.02 176.527 9.02C177.134 9.02 177.61 8.87067 177.955 8.572C178.31 8.264 178.487 7.872 178.487 7.396C178.487 7.02267 178.385 6.71933 178.179 6.486C177.974 6.25267 177.717 6.07533 177.409 5.954C177.101 5.83267 176.686 5.702 176.163 5.562C175.519 5.394 175.001 5.226 174.609 5.058C174.227 4.89 173.895 4.62867 173.615 4.274C173.345 3.91 173.209 3.42467 173.209 2.818C173.209 2.286 173.345 1.81467 173.615 1.404C173.886 0.993333 174.264 0.675999 174.749 0.451999C175.244 0.228 175.809 0.116 176.443 0.116C177.358 0.116 178.105 0.344666 178.683 0.802C179.271 1.25933 179.603 1.866 179.677 2.622H178.277C178.231 2.24867 178.035 1.922 177.689 1.642C177.344 1.35267 176.887 1.208 176.317 1.208C175.785 1.208 175.351 1.348 175.015 1.628C174.679 1.89867 174.511 2.28133 174.511 2.776C174.511 3.13067 174.609 3.42 174.805 3.644C175.011 3.868 175.258 4.04067 175.547 4.162C175.846 4.274 176.261 4.40467 176.793 4.554C177.437 4.73133 177.955 4.90867 178.347 5.086C178.739 5.254 179.075 5.52 179.355 5.884C179.635 6.23867 179.775 6.724 179.775 7.34C179.775 7.816 179.649 8.264 179.397 8.684C179.145 9.104 178.772 9.44467 178.277 9.706C177.783 9.96733 177.199 10.098 176.527 10.098Z" fill="#645C55"/>
</svg>
